# Blender 4.3.2
# www.blender.org
mtllib HalfpipeBuilding.mtl
o HalfpipeBuilding
v -45.000000 -100.000000 -230.149994
v -45.000000 90.608215 -230.149994
v -45.000000 -100.000000 -320.149994
v -45.000000 90.608215 -320.149994
v 45.000000 -100.000000 -230.149994
v 45.000000 90.608215 -230.149994
v 45.000000 -100.000000 -320.149994
v 45.000000 90.608215 -320.149994
v -45.000000 -100.000000 -311.149994
v -45.000000 -100.000000 -302.149994
v -45.000000 -100.000000 -293.149994
v -45.000000 -100.000000 -284.149994
v -45.000000 -100.000000 -275.149994
v -45.000000 -100.000000 -266.149994
v -45.000000 -100.000000 -257.149994
v -45.000000 -100.000000 -248.149994
v -45.000000 -100.000000 -239.149994
v -45.000000 77.311203 -239.149994
v -45.000000 68.354675 -248.149994
v -45.000000 63.685905 -257.149994
v -45.000000 61.235680 -266.149994
v -45.000000 60.462795 -275.149994
v -45.000000 61.235680 -284.149994
v -45.000000 63.685905 -293.149994
v -45.000000 68.354675 -302.149994
v -45.000000 77.311203 -311.149994
v 45.000000 -100.000000 -239.149994
v 45.000000 -100.000000 -248.149994
v 45.000000 -100.000000 -257.149994
v 45.000000 -100.000000 -266.149994
v 45.000000 -100.000000 -275.149994
v 45.000000 -100.000000 -284.149994
v 45.000000 -100.000000 -293.149994
v 45.000000 -100.000000 -302.149994
v 45.000000 -100.000000 -311.149994
v 45.000000 77.311203 -311.149994
v 45.000000 68.354675 -302.149994
v 45.000000 63.685905 -293.149994
v 45.000000 61.235680 -284.149994
v 45.000000 60.462795 -275.149994
v 45.000000 61.235680 -266.149994
v 45.000000 63.685905 -257.149994
v 45.000000 68.354675 -248.149994
v 45.000000 77.311203 -239.149994
v -43.377010 99.897346 -230.595306
v -43.377010 76.585472 -243.055756
v -43.377010 83.484863 -237.393570
v -43.377010 70.923279 -249.955139
v -43.377010 91.356316 -233.186188
v -43.377010 66.715912 -257.826599
v -43.377010 63.250172 -275.145782
v -43.377010 64.125015 -266.367645
v 43.377010 70.923279 -249.955139
v 43.377010 66.715897 -257.826599
v 43.377010 63.250172 -275.145782
v 43.377010 64.125000 -266.367645
v 43.377010 91.356316 -233.186188
v 43.377010 99.897339 -230.595306
v 43.377010 83.484856 -237.393570
v 43.377010 76.585457 -243.055756
v -47.176414 99.897362 -226.685059
v -47.176414 90.608215 -229.502884
v -47.176414 82.047295 -234.078796
v -47.176414 74.543587 -240.236923
v -47.176414 68.385445 -247.740631
v -47.176414 63.809551 -256.301544
v -47.176414 60.991714 -265.590698
v -47.176414 60.040249 -275.145782
v 47.176414 99.897339 -226.685059
v 47.176414 60.040249 -275.145782
v 47.176414 60.991703 -265.590698
v 47.176414 63.809540 -256.301544
v 47.176414 68.385445 -247.740631
v 47.176414 74.543571 -240.236923
v 47.176414 82.047287 -234.078796
v 47.176414 90.608215 -229.502884
v -43.377010 99.897346 -319.696289
v -43.377010 76.585472 -307.235809
v -43.377010 83.484863 -312.898010
v -43.377010 70.923279 -300.336426
v -43.377010 91.356316 -317.105377
v -43.377010 66.715912 -292.464966
v -43.377010 64.125015 -283.923950
v 43.377010 70.923279 -300.336426
v 43.377010 66.715897 -292.464966
v 43.377010 64.125000 -283.923950
v 43.377010 91.356316 -317.105377
v 43.377010 99.897339 -319.696289
v 43.377010 83.484856 -312.898010
v 43.377010 76.585457 -307.235809
v -47.176414 99.897362 -323.606506
v -47.176414 90.608215 -320.788696
v -47.176414 82.047295 -316.212769
v -47.176414 74.543587 -310.054657
v -47.176414 68.385445 -302.550934
v -47.176414 63.809551 -293.990021
v -47.176414 60.991714 -284.700867
v 47.176414 99.897339 -323.606506
v 47.176414 60.991703 -284.700867
v 47.176414 63.809540 -293.990021
v 47.176414 68.385445 -302.550934
v 47.176414 74.543571 -310.054657
v 47.176414 82.047287 -316.212769
v 47.176414 90.608215 -320.788696
vn -1.0000 -0.0000 -0.0000
vn -0.0000 -0.0000 -1.0000
vn 1.0000 -0.0000 -0.0000
vn -0.0000 -0.0000 1.0000
vn -0.0000 -1.0000 -0.0000
vn -0.0000 0.5605 -0.8281
vn -0.0000 0.5605 0.8281
vn -0.0000 0.7088 0.7054
vn -0.0000 0.8877 0.4605
vn -0.0000 0.9649 0.2627
vn -0.0000 0.9963 0.0856
vn -0.0000 0.9963 -0.0856
vn -0.0000 0.9649 -0.2627
vn -0.0000 0.8877 -0.4605
vn -0.0000 0.7088 -0.7054
vn -0.0000 -0.9951 0.0992
vn -0.0000 -0.9569 0.2903
vn -0.0000 -0.8819 0.4714
vn -0.0000 -0.7730 0.6344
vn -0.0000 -0.6344 0.7730
vn -0.0000 -0.4714 0.8819
vn -0.0000 -0.2903 0.9569
vn -0.0000 0.9951 -0.0991
vn -0.0000 0.9569 -0.2903
vn -0.0000 0.8819 -0.4714
vn -0.0000 0.7730 -0.6344
vn -0.0000 0.6344 -0.7730
vn -0.0000 0.4714 -0.8819
vn -0.0000 0.2903 -0.9569
vn -0.6435 -0.7616 0.0759
vn -0.6470 -0.7297 0.2213
vn -0.6537 -0.6674 0.3567
vn -0.6632 -0.5786 0.4748
vn 0.7017 -0.2068 0.6818
vn -0.6748 -0.4682 0.5705
vn 0.6879 -0.3421 0.6401
vn -0.6879 -0.3421 0.6401
vn 0.6748 -0.4682 0.5705
vn -0.7017 -0.2068 0.6818
vn 0.6632 -0.5786 0.4748
vn 0.6537 -0.6674 0.3567
vn 0.6470 -0.7297 0.2213
vn 0.6435 -0.7616 0.0759
vn -0.0000 -0.9951 -0.0992
vn -0.0000 -0.9569 -0.2903
vn -0.0000 -0.8819 -0.4714
vn -0.0000 -0.7730 -0.6344
vn -0.0000 -0.6344 -0.7730
vn -0.0000 -0.4714 -0.8819
vn -0.0000 -0.2903 -0.9569
vn -0.0000 0.9951 0.0991
vn -0.0000 0.9569 0.2903
vn -0.0000 0.8819 0.4714
vn -0.0000 0.7730 0.6344
vn -0.0000 0.6344 0.7730
vn -0.0000 0.4714 0.8819
vn -0.0000 0.2903 0.9569
vn -0.6435 -0.7616 -0.0759
vn -0.6470 -0.7297 -0.2213
vn -0.6537 -0.6674 -0.3567
vn -0.6632 -0.5786 -0.4748
vn 0.7017 -0.2068 -0.6818
vn -0.6748 -0.4682 -0.5705
vn 0.6879 -0.3421 -0.6401
vn -0.6879 -0.3421 -0.6401
vn 0.6748 -0.4682 -0.5705
vn -0.7017 -0.2068 -0.6818
vn 0.6632 -0.5786 -0.4748
vn 0.6537 -0.6674 -0.3567
vn 0.6470 -0.7297 -0.2213
vn 0.6435 -0.7616 -0.0759
vt 0.375000 0.225000
vt 0.625000 0.225000
vt 0.625000 0.250000
vt 0.375000 0.250000
vt 0.625000 0.500000
vt 0.375000 0.500000
vt 0.375000 0.725000
vt 0.625000 0.725000
vt 0.625000 0.750000
vt 0.375000 0.750000
vt 0.625000 1.000000
vt 0.375000 1.000000
vt 0.125000 0.725000
vt 0.125000 0.750000
vt 0.875000 0.725000
vt 0.875000 0.750000
vt 0.875000 0.500000
vt 0.875000 0.525000
vt 0.625000 0.525000
vt 0.875000 0.550000
vt 0.625000 0.550000
vt 0.875000 0.575000
vt 0.625000 0.575000
vt 0.875000 0.600000
vt 0.625000 0.600000
vt 0.875000 0.625000
vt 0.625000 0.625000
vt 0.875000 0.650000
vt 0.625000 0.650000
vt 0.875000 0.675000
vt 0.625000 0.675000
vt 0.875000 0.700000
vt 0.625000 0.700000
vt 0.125000 0.500000
vt 0.375000 0.525000
vt 0.125000 0.525000
vt 0.375000 0.550000
vt 0.125000 0.550000
vt 0.375000 0.575000
vt 0.125000 0.575000
vt 0.375000 0.600000
vt 0.125000 0.600000
vt 0.375000 0.625000
vt 0.125000 0.625000
vt 0.375000 0.650000
vt 0.125000 0.650000
vt 0.375000 0.675000
vt 0.125000 0.675000
vt 0.375000 0.700000
vt 0.125000 0.700000
vt 0.375000 0.000000
vt 0.625000 0.000000
vt 0.625000 0.025000
vt 0.375000 0.025000
vt 0.625000 0.050000
vt 0.375000 0.050000
vt 0.625000 0.075000
vt 0.375000 0.075000
vt 0.625000 0.100000
vt 0.375000 0.100000
vt 0.625000 0.125000
vt 0.375000 0.125000
vt 0.625000 0.150000
vt 0.375000 0.150000
vt 0.625000 0.175000
vt 0.375000 0.175000
vt 0.625000 0.200000
vt 0.375000 0.200000
vt 0.750000 0.502908
vt 0.750000 0.997092
vt 0.718750 0.997092
vt 0.718750 0.502908
vt 0.687500 0.997092
vt 0.687500 0.502908
vt 0.656250 0.997092
vt 0.656250 0.502908
vt 0.625000 0.997092
vt 0.625000 0.502908
vt 0.593750 0.997092
vt 0.593750 0.502908
vt 0.562500 0.997092
vt 0.562500 0.502908
vt 0.531250 0.502908
vt 0.531250 0.997092
s 0
f 9/1/1 26/2/1 4/3/1 3/4/1
f 3/4/2 4/3/2 8/5/2 7/6/2
f 27/7/3 44/8/3 6/9/3 5/10/3
f 5/10/4 6/9/4 2/11/4 1/12/4
f 17/13/5 27/7/5 5/10/5 1/14/5
f 44/8/6 18/15/6 2/16/6 6/9/6
f 8/5/7 4/17/7 26/18/7 36/19/7
f 36/19/8 26/18/8 25/20/8 37/21/8
f 37/21/9 25/20/9 24/22/9 38/23/9
f 38/23/10 24/22/10 23/24/10 39/25/10
f 39/25/11 23/24/11 22/26/11 40/27/11
f 40/27/12 22/26/12 21/28/12 41/29/12
f 41/29/13 21/28/13 20/30/13 42/31/13
f 42/31/14 20/30/14 19/32/14 43/33/14
f 43/33/15 19/32/15 18/15/15 44/8/15
f 3/34/5 7/6/5 35/35/5 9/36/5
f 9/36/5 35/35/5 34/37/5 10/38/5
f 10/38/5 34/37/5 33/39/5 11/40/5
f 11/40/5 33/39/5 32/41/5 12/42/5
f 12/42/5 32/41/5 31/43/5 13/44/5
f 13/44/5 31/43/5 30/45/5 14/46/5
f 14/46/5 30/45/5 29/47/5 15/48/5
f 15/48/5 29/47/5 28/49/5 16/50/5
f 16/50/5 28/49/5 27/7/5 17/13/5
f 7/6/3 8/5/3 36/19/3 35/35/3
f 35/35/3 36/19/3 37/21/3 34/37/3
f 34/37/3 37/21/3 38/23/3 33/39/3
f 33/39/3 38/23/3 39/25/3 32/41/3
f 32/41/3 39/25/3 40/27/3 31/43/3
f 31/43/3 40/27/3 41/29/3 30/45/3
f 30/45/3 41/29/3 42/31/3 29/47/3
f 29/47/3 42/31/3 43/33/3 28/49/3
f 28/49/3 43/33/3 44/8/3 27/7/3
f 1/51/1 2/52/1 18/53/1 17/54/1
f 17/54/1 18/53/1 19/55/1 16/56/1
f 16/56/1 19/55/1 20/57/1 15/58/1
f 15/58/1 20/57/1 21/59/1 14/60/1
f 14/60/1 21/59/1 22/61/1 13/62/1
f 13/62/1 22/61/1 23/63/1 12/64/1
f 12/64/1 23/63/1 24/65/1 11/66/1
f 11/66/1 24/65/1 25/67/1 10/68/1
f 10/68/1 25/67/1 26/2/1 9/1/1
f 51/69/16 55/70/16 56/71/16 52/72/16
f 52/72/17 56/71/17 54/73/17 50/74/17
f 50/74/18 54/73/18 53/75/18 48/76/18
f 48/76/19 53/75/19 60/77/19 46/78/19
f 46/78/20 60/77/20 59/79/20 47/80/20
f 47/80/21 59/79/21 57/81/21 49/82/21
f 45/83/22 49/82/22 57/81/22 58/84/22
f 68/69/23 67/72/23 71/71/23 70/70/23
f 67/72/24 66/74/24 72/73/24 71/71/24
f 66/74/25 65/76/25 73/75/25 72/73/25
f 65/76/26 64/78/26 74/77/26 73/75/26
f 64/78/27 63/80/27 75/79/27 74/77/27
f 63/80/28 62/82/28 76/81/28 75/79/28
f 61/83/29 69/84/29 76/81/29 62/82/29
f 56/71/30 55/70/30 70/70/30 71/71/30
f 54/73/31 56/71/31 71/71/31 72/73/31
f 53/75/32 54/73/32 72/73/32 73/75/32
f 60/77/33 53/75/33 73/75/33 74/77/33
f 49/82/34 45/83/34 61/83/34 62/82/34
f 59/79/35 60/77/35 74/77/35 75/79/35
f 47/80/36 49/82/36 62/82/36 63/80/36
f 57/81/37 59/79/37 75/79/37 76/81/37
f 46/78/38 47/80/38 63/80/38 64/78/38
f 58/84/39 57/81/39 76/81/39 69/84/39
f 48/76/40 46/78/40 64/78/40 65/76/40
f 58/84/5 69/84/5 61/83/5 45/83/5
f 50/74/41 48/76/41 65/76/41 66/74/41
f 52/72/42 50/74/42 66/74/42 67/72/42
f 51/69/43 52/72/43 67/72/43 68/69/43
f 51/69/44 83/72/44 86/71/44 55/70/44
f 83/72/45 82/74/45 85/73/45 86/71/45
f 82/74/46 80/76/46 84/75/46 85/73/46
f 80/76/47 78/78/47 90/77/47 84/75/47
f 78/78/48 79/80/48 89/79/48 90/77/48
f 79/80/49 81/82/49 87/81/49 89/79/49
f 77/83/50 88/84/50 87/81/50 81/82/50
f 68/69/51 70/70/51 99/71/51 97/72/51
f 97/72/52 99/71/52 100/73/52 96/74/52
f 96/74/53 100/73/53 101/75/53 95/76/53
f 95/76/54 101/75/54 102/77/54 94/78/54
f 94/78/55 102/77/55 103/79/55 93/80/55
f 93/80/56 103/79/56 104/81/56 92/82/56
f 91/83/57 92/82/57 104/81/57 98/84/57
f 86/71/58 99/71/58 70/70/58 55/70/58
f 85/73/59 100/73/59 99/71/59 86/71/59
f 84/75/60 101/75/60 100/73/60 85/73/60
f 90/77/61 102/77/61 101/75/61 84/75/61
f 81/82/62 92/82/62 91/83/62 77/83/62
f 89/79/63 103/79/63 102/77/63 90/77/63
f 79/80/64 93/80/64 92/82/64 81/82/64
f 87/81/65 104/81/65 103/79/65 89/79/65
f 78/78/66 94/78/66 93/80/66 79/80/66
f 88/84/67 98/84/67 104/81/67 87/81/67
f 80/76/68 95/76/68 94/78/68 78/78/68
f 88/84/5 77/83/5 91/83/5 98/84/5
f 82/74/69 96/74/69 95/76/69 80/76/69
f 83/72/70 97/72/70 96/74/70 82/74/70
f 51/69/71 68/69/71 97/72/71 83/72/71
