# Blender 4.3.2
# www.blender.org
mtllib Pyrabuilding.mtl
o PyramidBuilding
v -45.000000 -100.000000 -379.975006
v -45.000000 -100.000000 -469.975006
v 45.000000 -100.000000 -379.975006
v 45.000000 -100.000000 -469.975006
v -7.804272 99.159798 -417.170746
v -45.000000 77.453438 -379.975006
v -7.804272 99.159798 -432.779297
v -45.000000 77.453438 -469.975006
v 7.804272 99.159798 -417.170746
v 45.000000 77.453438 -379.975006
v 7.804272 99.159798 -432.779297
v 45.000000 77.453438 -469.975006
vn -0.0000 1.0000 -0.0000
vn 1.0000 -0.0000 -0.0000
vn -1.0000 -0.0000 -0.0000
vn -0.0000 -1.0000 -0.0000
vn -0.0000 -0.0000 -1.0000
vn -0.5040 0.8637 -0.0000
vn -0.0000 0.8637 -0.5040
vn 0.5040 0.8637 -0.0000
vn -0.0000 0.8637 0.5040
vn -0.0000 -0.0000 1.0000
vt 0.704555 0.579555
vt 0.795445 0.579555
vt 0.795445 0.670445
vt 0.704555 0.670445
vt 0.375000 0.500000
vt 0.545445 0.500000
vt 0.545445 0.750000
vt 0.375000 0.750000
vt 0.375000 0.000000
vt 0.545445 0.000000
vt 0.545445 0.250000
vt 0.375000 0.250000
vt 0.125000 0.500000
vt 0.125000 0.750000
vt 0.875000 0.500000
vt 0.875000 0.750000
vt 0.625000 0.500000
vt 0.625000 0.750000
vt 0.545445 1.000000
vt 0.375000 1.000000
s 0
f 11/1/1 7/2/1 5/3/1 9/4/1
f 4/5/2 12/6/2 10/7/2 3/8/2
f 1/9/3 6/10/3 8/11/3 2/12/3
f 2/13/4 4/5/4 3/8/4 1/14/4
f 2/12/5 8/11/5 12/6/5 4/5/5
f 5/3/6 7/2/6 8/15/6 6/16/6
f 7/2/7 11/1/7 12/17/7 8/15/7
f 11/1/8 9/4/8 10/7/8 12/6/8
f 9/4/9 5/3/9 6/16/9 10/18/9
f 3/8/10 10/7/10 6/19/10 1/20/10
